<svg xmlns="http://www.w3.org/2000/svg" width="104" height="169" viewBox="0 0 104 169" fill="none"><path d="M65.5005 143.749C65.4053 151.544 59.0091 157.786 51.2149 157.691C43.4206 157.596 37.1787 151.199 37.2739 143.404C37.3691 135.609 43.7653 129.366 51.5596 129.462C59.3538 129.557 65.5957 135.954 65.5005 143.749Z" fill="white"></path><path d="M65.5005 143.749C65.4053 151.544 59.0091 157.786 51.2149 157.691C43.4206 157.596 37.1787 151.199 37.2739 143.404C37.3691 135.609 43.7653 129.366 51.5596 129.462C59.3538 129.557 65.5957 135.954 65.5005 143.749Z" stroke="#0E1740" stroke-width="1.39357" stroke-linejoin="round"></path><path d="M51.1509 162.59L51.0866 167.844" stroke="#0E1740" stroke-width="1.39357" stroke-linecap="round" stroke-linejoin="round"></path><path d="M60.6924 160.158L63.2625 164.74" stroke="#0E1740" stroke-width="1.39357" stroke-linecap="round" stroke-linejoin="round"></path><path d="M67.7368 153.285L72.2532 155.967" stroke="#0E1740" stroke-width="1.39357" stroke-linecap="round" stroke-linejoin="round"></path><path d="M70.4014 143.809L75.6528 143.873" stroke="#0E1740" stroke-width="1.39357" stroke-linecap="round" stroke-linejoin="round"></path><path d="M67.9669 134.267L72.5475 131.696" stroke="#0E1740" stroke-width="1.39357" stroke-linecap="round" stroke-linejoin="round"></path><path d="M61.0962 127.225L63.7776 122.708" stroke="#0E1740" stroke-width="1.39357" stroke-linecap="round" stroke-linejoin="round"></path><path d="M51.6189 124.561L51.6831 119.307" stroke="#0E1740" stroke-width="1.39357" stroke-linecap="round" stroke-linejoin="round"></path><path d="M42.0819 126.992L39.5117 122.41" stroke="#0E1740" stroke-width="1.39357" stroke-linecap="round" stroke-linejoin="round"></path><path d="M35.0345 133.867L30.522 131.184" stroke="#0E1740" stroke-width="1.39357" stroke-linecap="round" stroke-linejoin="round"></path><path d="M32.3725 143.344L27.1211 143.277" stroke="#0E1740" stroke-width="1.39357" stroke-linecap="round" stroke-linejoin="round"></path><path d="M34.8083 152.884L30.2277 155.452" stroke="#0E1740" stroke-width="1.39357" stroke-linecap="round" stroke-linejoin="round"></path><path d="M41.6756 159.929L38.9942 164.444" stroke="#0E1740" stroke-width="1.39357" stroke-linecap="round" stroke-linejoin="round"></path><path d="M53.1372 0.658203L51.79 110.828" stroke="#0E1740" stroke-width="1.39357" stroke-linejoin="round"></path><path d="M7.80804 146.295C-0.417898 146.195 -1.59333 142.312 5.20041 137.669L39.5 114.222C46.2937 109.58 57.3125 109.715 63.9908 114.522L97.7072 138.802C104.385 143.61 103.117 147.462 94.8896 147.361L7.80804 146.295Z" fill="white"></path><path d="M7.80804 146.295C-0.417898 146.195 -1.59333 142.312 5.20041 137.669L39.5 114.222C46.2937 109.58 57.3125 109.715 63.9908 114.522L97.7072 138.802C104.385 143.61 103.117 147.462 94.8896 147.361L7.80804 146.295Z" stroke="#0E1740" stroke-width="1.39357" stroke-linejoin="round"></path></svg>